<svg xmlns="http://www.w3.org/2000/svg" viewBox="0 0 280 310" fill="none">
  <defs><style>/* Font loaded via CSS */</style></defs>
  
  
  <!-- ═══ PILLAR (drawn first, behind beam) ══════════════════════════════ -->

  <!-- Finial ball at top -->
  <circle cx="140" cy="44" r="7" fill="#0D5C2E"/>
  <!-- Finial neck -->
  <rect x="137" y="51" width="6" height="9" fill="#0D5C2E"/>
  <!-- Top platform (above hub) -->
  <rect x="131" y="59" width="18" height="4" rx="1" fill="#0D5C2E"/>

  <!-- Column neck (below hub) -->
  <rect x="137" y="79" width="6" height="10" fill="#0D5C2E"/>
  <!-- Bottom platform (below hub) -->
  <rect x="131" y="88" width="18" height="4" rx="1" fill="#0D5C2E"/>

  <!-- Upper barrel (curved sides — lathe profile) -->
  <path d="M 133,92 C 127,107 127,127 133,140 L 147,140 C 153,127 153,107 147,92 Z" fill="#0D5C2E"/>

  <!-- Mid waist ring -->
  <rect x="131" y="140" width="18" height="5" rx="1" fill="#0D5C2E"/>

  <!-- Lower barrel -->
  <path d="M 133,145 C 127,156 127,168 133,175 L 147,175 C 153,168 153,156 147,145 Z" fill="#0D5C2E"/>

  <!-- Base collar -->
  <rect x="124" y="175" width="32" height="6" rx="1" fill="#0D5C2E"/>
  <!-- Base disc -->
  <rect x="112" y="181" width="56" height="6" rx="1" fill="#0D5C2E"/>

  <!-- ═══ BEAM ARMS (curved bezier, over pillar) ══════════════════════════ -->

  <!-- Left arm: curves up toward center, narrows toward end ring -->
  <path d="M 126,62 C 102,53 72,54 52,61
           L 52,73 C 72,75 102,76 126,72 Z" fill="#0D5C2E"/>

  <!-- Right arm (mirror) -->
  <path d="M 154,62 C 178,53 208,54 228,61
           L 228,73 C 208,75 178,76 154,72 Z" fill="#0D5C2E"/>

  <!-- ═══ HUB (center pivot, over beam) ══════════════════════════════════ -->
  <circle cx="140" cy="67" r="13" fill="#0D5C2E"/>
  <circle cx="140" cy="67" r="8"  fill="#FFFFFF"/>
  <circle cx="140" cy="67" r="4"  fill="#0D5C2E"/>

  <!-- ═══ SCROLL TERMINALS at beam ends ═══════════════════════════════════ -->
  <!-- Left terminal ring -->
  <circle cx="52" cy="67" r="9"  fill="#0D5C2E"/>
  <circle cx="52" cy="67" r="5"  fill="#FFFFFF"/>
  <circle cx="52" cy="67" r="2.5" fill="#0D5C2E"/>

  <!-- Right terminal ring -->
  <circle cx="228" cy="67" r="9"  fill="#0D5C2E"/>
  <circle cx="228" cy="67" r="5"  fill="#FFFFFF"/>
  <circle cx="228" cy="67" r="2.5" fill="#0D5C2E"/>

  <!-- ═══ CHAINS — 3 per side, fanning out to pan rim ════════════════════ -->
  <!-- Left chains (from ring at x≈52, y=76 → pan at x=52, y=190) -->
  <line x1="46"  y1="76" x2="14"  y2="190" stroke="#0D5C2E" stroke-width="3.5" stroke-linecap="round"/>
  <line x1="52"  y1="76" x2="52"  y2="190" stroke="#0D5C2E" stroke-width="3.5" stroke-linecap="round"/>
  <line x1="58"  y1="76" x2="90"  y2="190" stroke="#0D5C2E" stroke-width="3.5" stroke-linecap="round"/>

  <!-- Right chains -->
  <line x1="222" y1="76" x2="190" y2="190" stroke="#0D5C2E" stroke-width="3.5" stroke-linecap="round"/>
  <line x1="228" y1="76" x2="228" y2="190" stroke="#0D5C2E" stroke-width="3.5" stroke-linecap="round"/>
  <line x1="234" y1="76" x2="266" y2="190" stroke="#0D5C2E" stroke-width="3.5" stroke-linecap="round"/>

  <!-- ═══ PANS — wide shallow bowls ═══════════════════════════════════════ -->
  <!-- Left pan (cx=52, rx=44, bottom arc) -->
  <path d="M 8,190 A 44 13 0 0 1 96,190 L 94,197 A 42 11 0 0 0 10,197 Z" fill="#0D5C2E"/>

  <!-- Right pan (cx=228, rx=44) -->
  <path d="M 184,190 A 44 13 0 0 1 272,190 L 270,197 A 42 11 0 0 0 186,197 Z" fill="#0D5C2E"/>

  <!-- ═══ BASE STEPS ════════════════════════════════════════════════════════ -->
  <rect x="100" y="187" width="80"  height="8"  rx="2" fill="#0D5C2E"/>
  <rect x="78"  y="195" width="124" height="8"  rx="2" fill="#0D5C2E"/>
  <rect x="54"  y="203" width="172" height="11" rx="2" fill="#0D5C2E"/>
  <text x="140" y="285" text-anchor="middle"
    font-family="'Playfair Display', Georgia, serif"
    font-weight="700" font-size="50" letter-spacing="4"
    fill="#0D5C2E">eFirm</text>
</svg>